<?xml version="1.0" encoding="UTF-8"?>
<svg id="Layer_1" data-name="Layer 1" xmlns="http://www.w3.org/2000/svg" viewBox="0 0 357.67 260.24">
  <path d="M230.28,178.43c-1.04,22.85,1.38,46.9.04,69.61-.15,2.52-.64,12.19-3.83,12.19h-37.53c-.16-43.15.2-86.34.04-129.5-.05-12.55-1.47-25.22,0-37.86l20.16-29.36c.4-.49,1.69-1.48,2.14-1.48h18.98v75.06h45.12c10.86,0,25.74-9.15,31.97-17.79,21.79-30.16,5.19-72.83-32.08-77.41l-75.63-.12-79.9,110.89c-9.71,11.32-16.09,2.34-22.59-6.03C68.83,110.14,39.87,67.75,13.69,29.41,11.15,25.7.35,10.64.05,7.56-.35,3.65,1.84,1.72,5.5,1.3c6.42-.74,23.95-.75,30.31.09,7.3.96,11.06,5.56,15.18,10.97,9.3,12.2,17.82,26.35,26.8,38.99,10.96,15.44,22.11,30.75,33.17,46.11,1.64.37,1.05-.46,1.48-1.06,6.07-8.55,12.12-17.11,18.18-25.66,13.17-18.59,26.89-42.18,41.13-59.23,7.3-8.75,12.13-10.33,23.51-11.07,28.01-1.81,57.78,2.68,86.05.89,71.59,8.13,100.36,96.07,53.55,148.82-10.98,12.38-37.66,28.28-54.38,28.28h-50.18Z"/>
  <path d="M.88,49.39l41.33,55.24v124.82l-1.33,1.17c-4.35-1.91-8.43-.02-12.55.13-4.53.16-27.44,1.58-27.44-4.67V49.39Z"/>
  <polyline points="178.83 102.84 150.55 140.2 150.55 231 178.83 231"/>
</svg>